{"title":"Barcelona vs Chelsea 2-2 1st half. 24-4-2012","uid":7213295,"size":2350934016,"categoryP":"video","categoryS":"other","magnet":"?xt=urn:btih:6471b71ae7107ff61006befa9023b5f99318c102&amp;dn=Barcelona+vs+Chelsea+2-2+1st+half.+24-4-2012&amp;tr=udp%3A%2F%2Ftracker.openbittorrent.com%3A80&amp;tr=udp%3A%2F%2Fopen.demonii.com%3A1337&amp;tr=udp%3A%2F%2Ftracker.coppersurfer.tk%3A6969&amp;tr=udp%3A%2F%2Fexodus.desync.com%3A6969","seeders":0,"leechers":1,"uploader":"Mountain-Diouf","files":1,"time":1335308753,"description":"Barcelona vs Chelsea 2-2 1st half. 24-4-2012\n\n\nScreeens &gt;&gt; http://bayimg.com/OaokMAadd\n\nAudio: MPEG Audio 32000Hz stereo 32kbps [Mpeg-1]\nVideo: MPEG2 Video 720x576 (16:9) 25.00fps 10000kbps [Video]\n\n\nGeneral\nComplete name                    : JSC sports +8 Barcelona vs Chelsea (L) 1st half.mpg\nFormat                           : MPEG-PS\nFile size                        : 2.19 GiB\nDuration                         : 51mn 49s\nOverall bit rate                 : 6 048 Kbps\n\nVideo\nID                               : 224 (0xE0)\nFormat                           : MPEG Video\nFormat version                   : Version 2\nFormat profile                   : Main@Main\nFormat settings, BVOP            : Yes\nFormat settings, Matrix          : Default\nDuration                         : 51mn 49s\nBit rate mode                    : Variable\nBit rate                         : 5 551 Kbps\nNominal bit rate                 : 10 000 Kbps\nWidth                            : 720 pixels\nHeight                           : 576 pixels\nDisplay aspect ratio             : 16:9\nFrame rate                       : 25.000 fps\nStandard                         : PAL\nResolution                       : 8 bits\nColorimetry                      : 4:2:0\nScan type                        : Interlaced\nScan order                       : Top Field First\nBits/(Pixel*Frame)               : 0.535\nStream size                      : 2.01 GiB (92%)\n\nAudio\nID                               : 192 (0xC0)\nFormat                           : MPEG Audio\nFormat version                   : Version 1\nFormat profile                   : Layer 2\nDuration                         : 51mn 49s\nBit rate mode                    : Constant\nBit rate                         : 256 Kbps\nChannel(s)                       : 2 channels\nSampling rate                    : 48.0 KHz\nVideo delay                      : -370ms\nStream size                      : 94.9 MiB (4%)\n\n","torrent":{"xt":"urn:btih:6471b71ae7107ff61006befa9023b5f99318c102","amp;dn":"Barcelona+vs+Chelsea+2-2+1st+half.+24-4-2012","amp;tr":["udp%3A%2F%2Ftracker.openbittorrent.com%3A80","udp%3A%2F%2Fopen.demonii.com%3A1337","udp%3A%2F%2Ftracker.coppersurfer.tk%3A6969","udp%3A%2F%2Fexodus.desync.com%3A6969"],"infoHash":"6471b71ae7107ff61006befa9023b5f99318c102","infoHashBuffer":{"type":"Buffer","data":[100,113,183,26,231,16,127,246,16,6,190,250,144,35,181,249,147,24,193,2]},"announce":[],"urlList":[]}}